<?xml version="1.0" standalone="no"?>
<!DOCTYPE svg PUBLIC "-//W3C//DTD SVG 20010904//EN"
 "http://www.w3.org/TR/2001/REC-SVG-20010904/DTD/svg10.dtd">
<svg version="1.0" xmlns="http://www.w3.org/2000/svg"
 width="16.000000pt" height="16.000000pt" viewBox="0 0 16.000000 16.000000"
 preserveAspectRatio="xMidYMid meet">

<g transform="translate(0.000000,16.000000) scale(0.100000,-0.100000)"
fill="#9c9c9c" stroke="none">
<path d="M52 148 c-7 -7 -12 -20 -12 -30 0 -10 -4 -18 -10 -18 -5 0 -10 -22
-10 -50 l0 -50 60 0 60 0 0 50 c0 28 -4 50 -10 50 -5 0 -10 8 -10 18 0 22 -19
42 -40 42 -9 0 -21 -5 -28 -12z m46 -10 c21 -21 13 -38 -18 -38 -18 0 -30 5
-30 13 0 13 19 37 30 37 3 0 11 -5 18 -12z m-8 -88 c0 -11 -4 -20 -10 -20 -5
0 -10 9 -10 20 0 11 5 20 10 20 6 0 10 -9 10 -20z"/>
</g>
</svg>
